<svg id="Layer_1" enable-background="new 0 0 512 512" viewBox="0 0 512 512" xmlns="http://www.w3.org/2000/svg"><g><path d="m481.88 30.12h30.12v331.29h-30.12z"/><path d="m30.12 361.41v30.12h150.58v30.12h150.59v-30.12h150.59v-30.12z"/><path d="m391.53 451.77h30.12v30.11h-30.12z"/><path d="m301.17 240.94h150.59v30.12h-150.59z"/><path d="m301.17 180.71h150.59v30.11h-150.59z"/><path d="m301.17 120.47h150.59v30.12h-150.59z"/><path d="m120.47 481.88h271.06v30.12h-271.06z"/><path d="m331.29 421.65h60.24v30.12h-60.24z"/><path d="m240.94 120.47h30.12v60.24h-30.12z"/><path d="m210.82 301.18h30.12v30.12h-30.12z"/><path d="m210.82 240.94h30.12v30.12h-30.12z"/><path d="m210.82 90.35h30.12v30.12h-30.12z"/><path d="m90.35 180.71h150.59v30.11h-150.59z"/><path d="m120.47 421.65h60.23v30.12h-60.23z"/><path d="m150.59 301.18h30.11v30.12h-30.11z"/><path d="m150.59 240.94h30.11v30.12h-30.11z"/><path d="m120.47 60.24h90.35v30.11h-90.35z"/><path d="m90.35 451.77h30.12v30.11h-30.12z"/><path d="m90.35 301.18h30.12v30.12h-30.12z"/><path d="m90.35 240.94h30.12v30.12h-30.12z"/><path d="m90.35 90.35h30.12v30.12h-30.12z"/><path d="m60.23 120.47h30.12v60.24h-30.12z"/><path d="m30.12 0h451.76v30.12h-451.76z"/><path d="m0 30.12h30.12v331.29h-30.12z"/></g><g/><g/><g/><g/><g/><g/><g/><g/><g/><g/><g/><g/><g/><g/><g/></svg>