<svg id="Layer_1" enable-background="new 0 0 512 512" viewBox="0 0 512 512" xmlns="http://www.w3.org/2000/svg"><g><path d="m481.88 30.12v-30.12h-451.76v30.12h-30.12v331.29h30.12v30.12h150.58v30.12h-60.23v30.12h-30.12v30.11h30.12v30.12h271.06v-30.12h30.12v-30.11h-30.12v-30.12h-60.24v-30.12h150.59v-30.12h30.12v-331.29z"/><g><path d="m30.12 30.12v331.29h451.76v-331.29zm30.11 90.35h30.12v-30.12h30.12v-30.11h90.35v30.11h30.12v30.12h30.12v60.24h-30.12v30.11h-150.59v-30.11h-30.12z" fill="#e7f2ff"/><g id="XMLID_00000151522522683204399720000001352298148144006553_"><g fill="#fadf00"><path d="m301.17 120.47h150.59v30.12h-150.59z"/><path d="m301.17 240.94h150.59v30.12h-150.59z"/><path d="m301.17 180.71h150.59v30.11h-150.59z"/></g><g fill="#00bff0"><path d="m210.82 120.47v-30.12h-90.35v30.12h-30.12v60.24h150.59v-60.24z"/><path d="m210.82 301.18h30.12v30.12h-30.12z"/><path d="m150.59 301.18h30.11v30.12h-30.11z"/><path d="m90.35 301.18h30.12v30.12h-30.12z"/><path d="m210.82 240.94h30.12v30.12h-30.12z"/><path d="m150.59 240.94h30.11v30.12h-30.11z"/><path d="m90.35 240.94h30.12v30.12h-30.12z"/></g><g fill="#e7f2ff"><path d="m120.47 451.77h271.06v30.11h-271.06z"/><path d="m210.82 391.53h90.35v30.12h-90.35z"/></g></g></g><g><g id="XMLID_00000005231545108687093350000012458375810877793976_"><path d="m210.82 120.47v-30.12h-60.23v30.12h30.11v30.12h30.12v30.12h30.12v-60.24z" fill="#0089de"/><g fill="#bfd4f7"><path d="m391.53 30.12v30.12h30.12v30.11h30.11v240.95h-30.11v30.11h60.23v-331.29z"/><path d="m331.29 451.77h60.24v30.11h-60.24z"/><path d="m271.06 391.53h30.11v30.12h-30.11z"/></g></g></g></g><g/><g/><g/><g/><g/><g/><g/><g/><g/><g/><g/><g/><g/><g/><g/></svg>