<svg id="Layer_1" enable-background="new 0 0 512 512" viewBox="0 0 512 512" xmlns="http://www.w3.org/2000/svg"><g id="_x31_9_laptop"><g><path d="m512 421.65v60.23h-30.12v30.12h-451.76v-30.12h-30.12v-60.23h60.24v-210.83h30.11v-30.11h60.24v-60.24h30.12v-30.12h60.23v30.12h30.12v-30.12h60.23v30.12h30.12v60.24h60.24v30.11h30.11v210.83z"/></g><g><path d="m331.29 331.29h30.12v30.12h-30.12z" fill="#ffd944"/><g><path d="m331.29 150.59v30.12h-30.11v30.11h-30.12v30.12h-30.12v-30.12h-30.12v-30.11h-30.11v-30.12l15.055-15.06h30.115l15.06 15.06 15.06 15.06 15.06-15.06 15.06-15.06h30.115z" fill="#ff6379"/></g><g><path d="m150.59 331.29h150.59v30.12h-150.59z" fill="#e9f3fb"/></g><g fill="#86bfec"><path d="m391.53 361.41 15.06 15.06v31.944l-15.06 13.236h-271.06l-15.06-15.06v-32.504l15.06-12.676h30.12v30.12h210.82v-30.12z"/><path d="m406.59 256v60.235l-15.06 15.055h-30.12v-30.11h-210.82v30.11h-30.12l-15.06-15.055v-60.235l10.484-25.638 19.636-4.482h60.235l15.055 15.06h30.12v30.12h30.12v-30.12h30.12l15.055-15.06h60.235l22.59 7.53z"/><path d="m30.12 451.76h451.76v30.12h-451.76z"/></g></g><g><g fill="#ffa6b2"><path d="m180.71 120.47h60.23v30.12h-60.23z"/><path d="m240.94 150.59h30.12v30.12h-30.12z"/><path d="m271.06 120.47h60.23v30.12h-60.23z"/></g><g fill="#e9f3fb"><path d="m421.65 210.82v210.83h-30.12v-180.71h-90.35v-30.12z"/><path d="m210.82 210.82v30.12h-90.35v180.71h-30.12v-210.83z"/></g><g><path d="m361.41 30.12h30.12v30.12h-30.12z" fill="#ff6379"/><path d="m120.47 30.12h30.12v30.12h-30.12z" fill="#ff6379"/><g fill="#86bfec"><path d="m391.53 120.47h30.12v30.12h-30.12z"/><path d="m240.94 0h30.12v30.12h-30.12z"/><path d="m90.35 120.47h30.12v30.12h-30.12z"/></g></g></g></g><g/><g/><g/><g/><g/><g/><g/><g/><g/><g/><g/><g/><g/><g/><g/></svg>