<svg id="Capa_1" enable-background="new 0 0 512 512" viewBox="0 0 512 512" xmlns="http://www.w3.org/2000/svg"><g><g><path d="m361.41 451.76v-30.11h-60.23v-30.12h30.11v-30.12h30.12v-60.23h30.12v-30.12h-30.12v-90.35h-30.12v-60.24h-30.11v-30.12h-30.12v-30.12h30.12v-30.11h-30.12v-30.12h-30.12v30.12h-30.12v30.11h30.12v30.12h-30.12v30.12h-30.11v60.24h-30.12v90.35h-30.12v30.12h30.12v60.23h30.12v30.12h30.11v30.12h-60.23v30.11h-30.12v60.24h271.06v-60.24z"/></g><g id="XMLID_00000057829291121071596000000018162016765301202092_"><g fill="#ffc906"><path d="m90.35 150.587h30.12v30.12h-30.12z"/><path d="m240.94 30.117h30.12v30.12h-30.12z"/><path d="m361.41 30.117h30.12v30.12h-30.12z"/></g><g fill="#ea7098"><path d="m240.94 331.297h30.12v30.11h-30.12z"/><path d="m30.12 60.237h30.12v30.11h-30.12z"/><path d="m301.18 150.587v-30.12h-30.12v-30.12h-30.12v30.12h-30.12v30.12z"/><path d="m60.24 30.117h30.11v30.12h-30.11z"/><path d="m60.24 90.347h30.11v30.12h-30.11z"/><path d="m90.35 60.237h30.12v30.11h-30.12z"/><path d="m180.71 180.707h150.58v30.12h-150.58z"/></g><g fill="#04a6df"><path d="m451.76 240.937h30.12v30.12h-30.12z"/><path d="m30.12 210.827h30.12v30.11h-30.12z"/><path d="m301.18 421.647h-90.36v30.12h-60.23v30.11h210.82v-30.11h-60.23z"/></g><g fill="#04a6df"><path d="m421.65 90.347h30.11v30.12h-30.11z"/><path d="m391.53 120.467h30.12v30.12h-30.12z"/><path d="m451.76 120.467h30.12v30.12h-30.12z"/><path d="m421.65 150.587h30.11v30.12h-30.11z"/></g><path d="m331.29 271.057v-30.12h-150.58v30.12h-30.12v30.12h30.12v60.23h30.11v30.12h90.36v-30.12h30.11v-60.23h30.12v-30.12zm-120.47 0h30.12v30.12h-30.12zm60.24 90.35h-30.12v-30.11h30.12zm30.12-60.23h-30.12v-30.12h30.12z" fill="#ffeeb4"/></g><g id="XMLID_00000137131603226305108520000009523810477319118734_"><path d="m301.18 451.76v-30.11h-30.12v30.115l30.12-.005v30.12h60.23v-30.12z" fill="#0d74c9"/><path d="m331.29 271.06v-30.12h-60.23v30.12h30.12v60.23h-30.12v60.24h30.12v-30.12h30.11v-60.23h30.12v-30.12z" fill="#fde191"/><g fill="#ba4899"><path d="m271.06 180.71h60.23v30.11h-60.23z"/><path d="m271.06 120.47h30.12v30.12h-30.12z"/><path d="m240.94 90.35h30.12v30.12h-30.12z"/></g></g></g><g/><g/><g/><g/><g/><g/><g/><g/><g/><g/><g/><g/><g/><g/><g/></svg>