<svg id="Layer_1" enable-background="new 0 0 512 512" height="512" viewBox="0 0 512 512" width="512" xmlns="http://www.w3.org/2000/svg"><path d="m234.898 117.992h-25.003v25.003h25.003zm-8 17.003h-9.003v-9.003h9.003zm239.869 195.81v-11.187h9.396v-9.843h8.837v-120.53h-8.838v-8.949h-25.002v8.949h-8.837v91.948h-8.276v-130.43h-8.838v-8.948h-25.002v8.948h-8.837v85.686h-8.276v-47.204h-8.838v-8.949h-25.002v8.949h-8.837v75.786h8.837v9.844h9.396v11.187h32.72v83.84h-191.263v-46.812h18.121v-15.66h17.003v-36.466h10.121v18.345h25.003v-44.69h-35.124v-28.69h73.604v-26.345h-54.588v-9.003h72.486v-62.588h-17.898v-17.003h-117.176v17.003h-17.897v89.936h-19.35v18.346h-15.985v18.345h-15.673v18.346h-32.718v-18.796h-18.345v-17.003h-18.346v-36.243h-26.345v100.397h18.346v17.003h18.346v17.002h18.345v18.793h18.346v25.781h-69.383v8h69.381v33.11h44.69v-26.345h-18.346v-6.766h14.346 4 10.345 4 14.346v33.11h44.69v-26.345h-18.346v-6.766h191.264v33.11h42.677v-33.11h46.953v-8h-46.953v-39.096h32.72zm-321.695 39.096v-11.24h10.345v11.24zm65.381 22.766v10.345h-28.69v-33.11h-18.346v-19.24h-26.345v19.24h-18.346v22.766h18.346v10.345h-28.69v-66.893h-18.346v-18.793h-18.345v-17.002h-18.346v-17.003h-18.345v-84.397h10.346v36.243h18.346v17.003h18.345v18.793h48.718v-18.346h15.673v-18.345h15.985v-18.346h19.35v-89.936h17.897v-17.003h101.176v17.003h17.898v46.588h-72.486v25.003h54.588v10.345h-73.604v44.69h35.124v28.69h-9.003v-18.345h-26.121v36.466h-17.003v15.66h-18.121v77.577h18.345zm215.594 10.344h-26.677v-124.95h-32.72v-11.187h-9.396v-9.844h-8.837v-59.786h8.837v-8.949h9.002v8.949h8.838v47.204h24.276v-85.686h8.837v-8.948h9.002v8.948h8.838v130.43h24.276v-91.948h8.837v-8.949h9.002v8.949h8.838v104.531h-8.838v9.843h-9.396v11.187h-32.72v80.206zm-395.047 0h15.441v8h-15.441zm242.892 0h17.458v8h-17.458zm-214.035-17.231h23.274v8h-23.274zm265.499 0h31.769v8h-31.769zm127.727 17.231h17.459v8h-17.459z"/></svg>